<svg xmlns="http://www.w3.org/2000/svg" viewBox="0 0 418.72 425.99"><defs><style>.cls-1{fill:#e2858a;}.cls-2{fill:#121212;}.cls-3{fill:#edd1d1;}.cls-4{fill:#bdaa96;}.cls-5{fill:#e2c7c5;}.cls-6{fill:#d8cae4;}.cls-7{fill:#8363a5;}.cls-8{fill:#af845a;}.cls-9{fill:#4f4b7d;}.cls-10{fill:#d6d6d6;}.cls-11{fill:#d8d8d8;}</style></defs><title>mebrigh</title><g id="Layer_19" data-name="Layer 19"><path class="cls-1" d="M451.94,326.58C402,395.09,365.61,491.45,248.37,480,136.46,469.15,16.68,406.53,44.79,326.58c30.14-85.68,80.14-128.72,203.58-153.46C358.6,151,492.51,270.87,451.94,326.58Z" transform="translate(-40.64 -54.97)"/></g><g id="Layer_15" data-name="Layer 15"><path class="cls-2" d="M370.37,319a338.11,338.11,0,0,1-18.26,39.92c-9.05,16.87-19,39.18-41.78,37.59-10.62-.75-18.74-7.31-25.46-15-1.93-2.22-13.5-14.33-9.38-17.48l47.44-36.26Z" transform="translate(-40.64 -54.97)"/><polygon class="cls-2" points="134.1 265.19 184.46 311.32 244.75 275.19 153.54 259.7 134.1 265.19"/></g><g id="Layer_5" data-name="Layer 5"><path class="cls-3" d="M242,158c-2.92,7,2.4,14.58,3.71,21.63,1.17,6.26,3.84,13.91.37,19.9a1.92,1.92,0,0,0-.4,1.19c.1.71.92,1,1.62,1.17a48,48,0,0,0,12.21.71c9.52-.4,19-1.63,28.43-2.83-3.06-5.61-6.14-11.29-7.87-17.44s-2-12.93.5-18.81c1.23-2.91,3.12-5.54,4-8.57,1.36-4.76-.37-12-4.93-14.7-5.42-3.21-14.94,3.54-20.42,6.21-5.32,2.6-12.56,4.26-16.08,9.45A11.56,11.56,0,0,0,242,158Z" transform="translate(-40.64 -54.97)"/></g><g id="Layer_18" data-name="Layer 18"><path class="cls-4" d="M227.32,138.3,236,162s30.08,16.13,39-2.38,0-35.53,0-35.53Z" transform="translate(-40.64 -54.97)"/></g><g id="Layer_11" data-name="Layer 11"><path class="cls-5" d="M185.73,400.15s30.77-11.31,51.65-3.73-31.77-35.7-31.77-35.7-20.36,2.48-22.62,5.37-8.25,24.17-8.25,24.17Z" transform="translate(-40.64 -54.97)"/></g><g id="Layer_3" data-name="Layer 3"><path class="cls-3" d="M223.92,91.87s-13.72,9.89-13.12,17c.83,9.9.71,19.91,2.69,29.68.87,4.3,8.28,28,15.69,19,1.13-1.38,1.87-3.09,3.27-4.19,7.82-6.2,16.58,16.95,26.65,14.88,5.37-1.1,15.39-4.36,22-22.51S295.47,110,295.47,110L266.85,83.08Z" transform="translate(-40.64 -54.97)"/></g><g id="Layer_12" data-name="Layer 12"><path class="cls-3" d="M300.83,307.82s-3.47,26.33-7.37,20.31,0-20.31,0-20.31-5.78,30.78-9.07,27.46-2.75-27.44,0-27.46S282.67,337,278,330.08,269.55,298,269.55,298l6.59-11.62,30.22,8.79Z" transform="translate(-40.64 -54.97)"/></g><g id="Layer_4" data-name="Layer 4"><path class="cls-6" d="M211.22,171c-4.46-1.63-9.24.59-14.17,6.34-9.89,11.54-11,27.55-13.12,41.93a181.11,181.11,0,0,1-4.37,20.64c-1.35,5.05-5.21,13-4.82,18.3l4.83,65.22L238,325.7l28.42-25.52L283,291.67s11.79,4,17.15,19.28c0,0,15-6.24,23.05-9.64s31.61,5.66,31.63,9.07c0,2.76,3.71,6.1,6.29,6.23a7.71,7.71,0,0,0,5.06-1.85c5.52-4.38,2-17.4,1.54-23.74q-1.2-14.92-2.52-29.84c-1.38-15.48-1.27-32.73-5.54-47.78-3.22-11.34,2.45-32.28-41.81-58.41-3.59-2.12-8.76-5.28-13.15-5.27-8,0-5.27,6.71-7.38,12.44-5.42,14.74-10.32,30-28.32,31.54a89.93,89.93,0,0,1-30.1-2.55c-7.33-2-15.56-5.28-19.6-12.14C216.8,174.69,214.07,172.06,211.22,171Z" transform="translate(-40.64 -54.97)"/></g><g id="Layer_20" data-name="Layer 20"><path class="cls-7" d="M285.16,292c5.54-1.56,11-3.21,16.5-4.89s10.9-3.48,16.25-5.48c2.68-1,5.32-2,7.95-3.15s5.19-2.32,7.72-3.61a58.53,58.53,0,0,0,7.3-4.38,26.16,26.16,0,0,0,6.16-5.86,23.41,23.41,0,0,1-5.56,6.63,49.59,49.59,0,0,1-7.14,5,101,101,0,0,1-15.74,7.26,168.34,168.34,0,0,1-16.51,5.11A155.08,155.08,0,0,1,285.16,292Z" transform="translate(-40.64 -54.97)"/></g><g id="Layer_2" data-name="Layer 2"><path class="cls-8" d="M238.7,56.88a34.87,34.87,0,0,0-6,2.8c-7.92,4.62-14.14,12-18.81,20s-5.29,18.62-7.08,27.87c-3.31,17.18,1.08,32.62,5.57,49,4.67,17.07,2.65,35.4,1,52.81a19,19,0,0,0,12.84-12.7c3.76,11.18-3.25,24.47,2,35,.92,1.83,2.37,3.6,4.34,4,3.16.6,5.76-2.47,7.37-5.33,7.57-13.37,10-29.09,12.2-44.39.75-5.11,1.49-10.36.34-15.39C249.53,157.65,236,151.06,227.69,141a41.74,41.74,0,0,1-7.47-38.12A7.89,7.89,0,0,1,222.44,99c3-2.43,7.22.2,10.72,1.81,7.74,3.56,16.67,1.63,25.14,1.49s18.51,3,20.93,11.32c1.37,4.71-.15,9.72-1.07,14.55-1.64,8.72-1.31,17.68-1.66,26.55-.56,14.15-2.89,28.21-3.06,42.38s2.06,28.88,9.74,40.64A22.47,22.47,0,0,0,293,221.63a17.63,17.63,0,0,1,.92-5.24c.78-1.76,2.29-3,3.36-4.64,3.05-4.52,2-10.59,1.38-16.05-2.2-18.5,2.91-36.65,1.87-55.39-.67-12,1-26.19-3.36-37.44-4.27-11-11.3-20.21-18.58-29.26-5.14-6.39-10.55-13-17.94-16.34C253.75,54.17,245.84,54.36,238.7,56.88Z" transform="translate(-40.64 -54.97)"/></g><g id="Layer_7" data-name="Layer 7"><path class="cls-9" d="M370.35,320.16c-1.45-22.79-29.75-34.82-49.51-23.87-15.53,8.61-29.54,21.26-43.93,31.6-9.61,6.91-19.28,13.77-29.24,20.19-3.86,2.49-7.76,5-11.81,7.15a34.62,34.62,0,0,1-4.79,2.41c-4,1.39-7.56,1.53-9.46,5.82-.91,2.05-1.22,18.23-2.36,18.24l26.65,11.54,28.57-4.39S372,346,370.35,320.16Z" transform="translate(-40.64 -54.97)"/></g><g id="Layer_10" data-name="Layer 10"><path class="cls-5" d="M188.76,376.13s39.83,21,47.52,32.5,25.16-20.53,25.16-20.53-55.66-32.27-51.55-37.72S188.76,376.13,188.76,376.13Z" transform="translate(-40.64 -54.97)"/></g><g id="Layer_8" data-name="Layer 8"><path class="cls-10" d="M154.18,362.24s-51.41-12.4-56.36,21.66c0,0-2.2,21.43,47.8,18.13,8.25-.54,33.45,8.68,39.23,2.28,2.5-2.76.51-10,.94-13.38.16-1.28,4.86-12.32,7.55-8.58-4.45-6.19-17-9.83-23.69-13C164.84,367.09,159.38,363.5,154.18,362.24Z" transform="translate(-40.64 -54.97)"/></g><g id="Layer_6" data-name="Layer 6"><path class="cls-9" d="M149,284.87c-10.29-11.12-22.83-18.4-37.46-7,0,0-22,13.73-2.2,42.3q17,16.62,34.54,32.73c8.63,7.94,17.32,15.83,26.33,23.34,4.05,3.37,11.15,11.06,16.64,11.36,7,.4,10.16-13,14.36-18.23,5.49-6.85,11.61-10.84,19.81-13.64-1.35-3.4-5.79-8.16-8.87-10.61-4-3.17-8.49-5.57-12.56-8.62-12.12-9.06-24-16.57-33.24-28.92C161.59,301.16,155.79,292.18,149,284.87Z" transform="translate(-40.64 -54.97)"/></g><g id="Layer_9" data-name="Layer 9"><path class="cls-10" d="M242.27,379.75s-15.8,25.95-4.8,34.68,12.06,1.12,24.79,7.32,22,9.7,25.49,7.41,10.63-37.13,4.33-48.1C292.08,381.06,250.63,379.41,242.27,379.75Z" transform="translate(-40.64 -54.97)"/></g><g id="Layer_17" data-name="Layer 17"><path class="cls-7" d="M325.22,202.72A178,178,0,0,1,327,222.81c.15,3.36.15,6.73.15,10.09s-.17,6.73-.33,10.1-.52,6.72-.92,10.08-.95,6.7-1.69,10a64.37,64.37,0,0,1-2.89,9.77,26.4,26.4,0,0,1-5.21,8.69,32,32,0,0,0,3.82-9.16,84.5,84.5,0,0,0,2-9.72c1-6.56,1.54-13.19,1.92-19.84s.63-13.32.85-20Z" transform="translate(-40.64 -54.97)"/><path class="cls-7" d="M200.06,190.91c.52,4.5.85,9,1.15,13.44l.87,13.38c.3,4.44.58,8.88,1,13.3.24,2.21.49,4.41.86,6.59a33.44,33.44,0,0,0,1.63,6.48,21.72,21.72,0,0,1-3-6.11,53.07,53.07,0,0,1-1.75-6.6,100.65,100.65,0,0,1-1.72-13.47c-.11-2.26-.22-4.51-.26-6.76s0-4.51.06-6.77A105.42,105.42,0,0,1,200.06,190.91Z" transform="translate(-40.64 -54.97)"/></g><g id="Layer_13" data-name="Layer 13"><path class="cls-11" d="M273.68,330.16l-115.25-4.07a7.31,7.31,0,0,1-7-6.17l-11.06-70.57a7.3,7.3,0,0,1,7.56-8.43l119.33,5.73a7.31,7.31,0,0,1,6.92,6.56l7,68.92A7.3,7.3,0,0,1,273.68,330.16Z" transform="translate(-40.64 -54.97)"/></g></svg>