<svg id="Layer_1" data-name="Layer 1" xmlns="http://www.w3.org/2000/svg" viewBox="0 0 1116.67 756.86"><defs><style>.cls-1{fill:#464749;}.cls-2{fill:#edecdd;}.cls-3{fill:#b2b1a6;}.cls-4{fill:#898671;}.cls-5{fill:#e0e0e0;}</style></defs><title>smallstars</title><path class="cls-1" d="M1508.7,528a147.83,147.83,0,0,1-21.63,74.86c-19.72,32.45-56.27,49.6-82,77.54-74.59,81.07-221.69,85-327.7,136.82a909.08,909.08,0,0,0-91.94,51.35c-19.86,12.75-33.18,26.59-57.26,31.4-23.51,4.69-48.14,2.38-71.3-3.14C760.82,874,665,830.34,580.25,780.14c-68.58-40.64-165.4-84.38-182.84-165.75-10.91-50.89-5-98.95,16.6-148.32C474.27,328.25,584.85,204,734.14,164a404.84,404.84,0,0,1,70.91-12.37c79.62-6.65,158.54,12.71,235.37,31.17,132.4,31.82,272.66,74.52,377.47,165.26C1468.51,391.85,1510,460.39,1508.7,528Z" transform="translate(-392.07 -145.67)"/><path class="cls-2" d="M1006.2,231.79a1.5,1.5,0,0,0,0-3,1.5,1.5,0,0,0,0,3Z" transform="translate(-392.07 -145.67)"/><path class="cls-2" d="M1044.18,424.84a1.5,1.5,0,0,0,0-3,1.5,1.5,0,0,0,0,3Z" transform="translate(-392.07 -145.67)"/><path class="cls-2" d="M1338.51,508.71a1.5,1.5,0,0,0,0-3,1.5,1.5,0,0,0,0,3Z" transform="translate(-392.07 -145.67)"/><path class="cls-2" d="M791,405.85a1.5,1.5,0,0,0,0-3,1.5,1.5,0,0,0,0,3Z" transform="translate(-392.07 -145.67)"/><path class="cls-2" d="M474.51,711.26a1.5,1.5,0,0,0,0-3,1.5,1.5,0,0,0,0,3Z" transform="translate(-392.07 -145.67)"/><path class="cls-2" d="M982.46,863.17a1.5,1.5,0,0,0,0-3,1.5,1.5,0,0,0,0,3Z" transform="translate(-392.07 -145.67)"/><path class="cls-2" d="M979.3,535.53c3.86,0,3.86-6,0-6s-3.87,6,0,6Z" transform="translate(-392.07 -145.67)"/><path class="cls-2" d="M1264.13,337.64c5.79,0,5.8-9,0-9s-5.8,9,0,9Z" transform="translate(-392.07 -145.67)"/><path class="cls-2" d="M944.51,378.49a1.13,1.13,0,0,0,0-2.25,1.13,1.13,0,0,0,0,2.25Z" transform="translate(-392.07 -145.67)"/><path class="cls-2" d="M914.42,301a1.13,1.13,0,0,0,0-2.25,1.13,1.13,0,0,0,0,2.25Z" transform="translate(-392.07 -145.67)"/><path class="cls-2" d="M775.16,293.13a1.13,1.13,0,0,0,0-2.25,1.13,1.13,0,0,0,0,2.25Z" transform="translate(-392.07 -145.67)"/><path class="cls-2" d="M730.86,351.67a1.13,1.13,0,0,0,0-2.25,1.13,1.13,0,0,0,0,2.25Z" transform="translate(-392.07 -145.67)"/><path class="cls-2" d="M740.35,535.23a1.13,1.13,0,0,0,0-2.25,1.13,1.13,0,0,0,0,2.25Z" transform="translate(-392.07 -145.67)"/><path class="cls-2" d="M814.73,509.92a1.13,1.13,0,0,0,0-2.25,1.13,1.13,0,0,0,0,2.25Z" transform="translate(-392.07 -145.67)"/><path class="cls-2" d="M824.22,497.26a1.13,1.13,0,0,0,0-2.25,1.13,1.13,0,0,0,0,2.25Z" transform="translate(-392.07 -145.67)"/><path class="cls-2" d="M1349.58,549.48a1.13,1.13,0,0,0,0-2.25,1.13,1.13,0,0,0,0,2.25Z" transform="translate(-392.07 -145.67)"/><path class="cls-2" d="M1409.71,513.08a1.13,1.13,0,0,0,0-2.25,1.13,1.13,0,0,0,0,2.25Z" transform="translate(-392.07 -145.67)"/><path class="cls-2" d="M1427.12,475.1a1.13,1.13,0,0,0,0-2.25,1.13,1.13,0,0,0,0,2.25Z" transform="translate(-392.07 -145.67)"/><path class="cls-2" d="M1338.51,453a1.13,1.13,0,0,0,0-2.25,1.13,1.13,0,0,0,0,2.25Z" transform="translate(-392.07 -145.67)"/><path class="cls-2" d="M1287.87,451.37a1.13,1.13,0,0,0,0-2.25,1.13,1.13,0,0,0,0,2.25Z" transform="translate(-392.07 -145.67)"/><path class="cls-2" d="M1286.29,521a1.13,1.13,0,0,0,0-2.25,1.13,1.13,0,0,0,0,2.25Z" transform="translate(-392.07 -145.67)"/><path class="cls-2" d="M1069.49,571.63a1.13,1.13,0,0,0,0-2.25,1.13,1.13,0,0,0,0,2.25Z" transform="translate(-392.07 -145.67)"/><path class="cls-2" d="M662.3,292.81a1.13,1.13,0,0,0,0-2.25,1.13,1.13,0,0,0,0,2.25Z" transform="translate(-392.07 -145.67)"/><path class="cls-2" d="M571,333.6h-1.58a1.13,1.13,0,0,0,0,2.25H571a1.13,1.13,0,0,0,0-2.25Z" transform="translate(-392.07 -145.67)"/><path class="cls-2" d="M588.44,631.76a1.13,1.13,0,0,0,0-2.25,1.13,1.13,0,0,0,0,2.25Z" transform="translate(-392.07 -145.67)"/><path class="cls-2" d="M775,794.36a1.13,1.13,0,0,0,0-2.25,1.13,1.13,0,0,0,0,2.25Z" transform="translate(-392.07 -145.67)"/><path class="cls-2" d="M897,878.62a1.13,1.13,0,0,0,0-2.25,1.13,1.13,0,0,0,0,2.25Z" transform="translate(-392.07 -145.67)"/><path class="cls-2" d="M472.14,437.9a.75.75,0,0,0,0-1.5.75.75,0,0,0,0,1.5Z" transform="translate(-392.07 -145.67)"/><path class="cls-2" d="M594,296.78a.75.75,0,0,0,0-1.5.75.75,0,0,0,0,1.5Z" transform="translate(-392.07 -145.67)"/><path class="cls-2" d="M497.45,364.7a.75.75,0,0,0,0-1.5.75.75,0,0,0,0,1.5Z" transform="translate(-392.07 -145.67)"/><path class="cls-2" d="M878,216.79a.75.75,0,0,0,0-1.5.75.75,0,0,0,0,1.5Z" transform="translate(-392.07 -145.67)"/><path class="cls-2" d="M1012.53,180.4a.75.75,0,0,0,0-1.5.75.75,0,0,0,0,1.5Z" transform="translate(-392.07 -145.67)"/><path class="cls-2" d="M871.69,147.17a.75.75,0,0,0,0-1.5.75.75,0,0,0,0,1.5Z" transform="translate(-392.07 -145.67)"/><path class="cls-2" d="M897,776.44a.75.75,0,0,0,0-1.5.75.75,0,0,0,0,1.5Z" transform="translate(-392.07 -145.67)"/><path class="cls-2" d="M910.2,793.59a.75.75,0,0,0,0-1.5.75.75,0,0,0,0,1.5Z" transform="translate(-392.07 -145.67)"/><path class="cls-2" d="M915.47,765.89a.75.75,0,0,0,0-1.5.75.75,0,0,0,0,1.5Z" transform="translate(-392.07 -145.67)"/><path class="cls-2" d="M914.15,734.24a.75.75,0,0,0,0-1.5.75.75,0,0,0,0,1.5Z" transform="translate(-392.07 -145.67)"/><path class="cls-2" d="M1325.58,358.42a.75.75,0,0,0,0-1.5.75.75,0,0,0,0,1.5Z" transform="translate(-392.07 -145.67)"/><path class="cls-2" d="M1230.64,347.87a.75.75,0,0,0,0-1.5.75.75,0,0,0,0,1.5Z" transform="translate(-392.07 -145.67)"/><path class="cls-2" d="M1195,296.44a.75.75,0,0,0,0-1.5.75.75,0,0,0,0,1.5Z" transform="translate(-392.07 -145.67)"/><path class="cls-2" d="M1258.33,292.49a.75.75,0,0,0,0-1.5.75.75,0,0,0,0,1.5Z" transform="translate(-392.07 -145.67)"/><path class="cls-2" d="M730.75,701.84a.75.75,0,0,0,0-1.5.75.75,0,0,0,0,1.5Z" transform="translate(-392.07 -145.67)"/><path class="cls-2" d="M472.4,696a.75.75,0,0,0,0-1.5.75.75,0,0,0,0,1.5Z" transform="translate(-392.07 -145.67)"/><path class="cls-2" d="M497.45,606.33a.75.75,0,0,0,0-1.5.75.75,0,0,0,0,1.5Z" transform="translate(-392.07 -145.67)"/><path class="cls-2" d="M488.22,595.78a.75.75,0,0,0,0-1.5.75.75,0,0,0,0,1.5Z" transform="translate(-392.07 -145.67)"/><path class="cls-2" d="M995.91,742.16a.75.75,0,0,0,0-1.5.75.75,0,0,0,0,1.5Z" transform="translate(-392.07 -145.67)"/><path class="cls-2" d="M1083,731.61a.75.75,0,0,0,0-1.5.75.75,0,0,0,0,1.5Z" transform="translate(-392.07 -145.67)"/><path class="cls-2" d="M1189.76,761.94a.75.75,0,0,0,0-1.5.75.75,0,0,0,0,1.5Z" transform="translate(-392.07 -145.67)"/><path class="cls-2" d="M1316.35,664.35a.75.75,0,0,0,0-1.5.75.75,0,0,0,0,1.5Z" transform="translate(-392.07 -145.67)"/><path class="cls-2" d="M1034.15,219.57c3.86,0,3.87-6,0-6s-3.86,6,0,6Z" transform="translate(-392.07 -145.67)"/><path class="cls-2" d="M927.34,213c3.86,0,3.87-6,0-6s-3.87,6,0,6Z" transform="translate(-392.07 -145.67)"/><path class="cls-2" d="M725.58,529.46c3.86,0,3.87-6,0-6s-3.86,6,0,6Z" transform="translate(-392.07 -145.67)"/><path class="cls-3" d="M738.77,290.78c3.86,0,3.87-6,0-6s-3.87,6,0,6Z" transform="translate(-392.07 -145.67)"/><path class="cls-3" d="M570,389.68c3.86,0,3.87-6,0-6s-3.87,6,0,6Z" transform="translate(-392.07 -145.67)"/><path class="cls-4" d="M523.82,438.29a1.5,1.5,0,0,0,0-3,1.5,1.5,0,0,0,0,3Z" transform="translate(-392.07 -145.67)"/><path class="cls-4" d="M542.29,431.7a1.5,1.5,0,0,0,0-3,1.5,1.5,0,0,0,0,3Z" transform="translate(-392.07 -145.67)"/><path class="cls-4" d="M618.77,479.17a1.5,1.5,0,0,0,0-3,1.5,1.5,0,0,0,0,3Z" transform="translate(-392.07 -145.67)"/><path class="cls-4" d="M581.85,506.86a1.5,1.5,0,0,0,0-3,1.5,1.5,0,0,0,0,3Z" transform="translate(-392.07 -145.67)"/><path class="cls-4" d="M537,551.7a1.5,1.5,0,0,0,0-3,1.5,1.5,0,0,0,0,3Z" transform="translate(-392.07 -145.67)"/><path class="cls-4" d="M872,193.2c3.86,0,3.86-6,0-6s-3.87,6,0,6Z" transform="translate(-392.07 -145.67)"/><path class="cls-4" d="M1399.43,454.3c3.86,0,3.87-6,0-6s-3.87,6,0,6Z" transform="translate(-392.07 -145.67)"/><path class="cls-4" d="M1425.8,373.86c3.86,0,3.87-6,0-6s-3.86,6,0,6Z" transform="translate(-392.07 -145.67)"/><path class="cls-4" d="M937.89,600.67c3.86,0,3.87-6,0-6s-3.87,6,0,6Z" transform="translate(-392.07 -145.67)"/><path class="cls-4" d="M848.22,712.76c3.86,0,3.87-6,0-6s-3.87,6,0,6Z" transform="translate(-392.07 -145.67)"/><path class="cls-5" d="M799.43,189.24c3.86,0,3.87-6,0-6s-3.87,6,0,6Z" transform="translate(-392.07 -145.67)"/><path class="cls-5" d="M460.53,522.87c3.86,0,3.86-6,0-6s-3.87,6,0,6Z" transform="translate(-392.07 -145.67)"/><path class="cls-5" d="M1076.35,486c3.86,0,3.87-6,0-6s-3.87,6,0,6Z" transform="translate(-392.07 -145.67)"/></svg>